<svg width="163.84" height="102.4" viewBox="0 0 256 160" fill="none" xmlns="http://www.w3.org/2000/svg">
<rect y="16" width="4" height="4" fill="#3BFF18"/>
<rect x="28" y="16" width="4" height="4" fill="#3BFF18"/>
<rect x="56" y="16" width="4" height="4" fill="#3BFF18"/>
<rect x="84" y="16" width="4" height="4" fill="#3BFF18"/>
<rect x="112" y="16" width="4" height="4" fill="#3BFF18"/>
<rect x="140" y="16" width="4" height="4" fill="#3BFF18"/>
<rect x="168" y="16" width="4" height="4" fill="#3BFF18"/>
<rect x="196" y="16" width="4" height="4" fill="#3BFF18"/>
<rect x="224" y="16" width="4" height="4" fill="#3BFF18"/>
<rect x="252" y="16" width="4" height="4" fill="#3BFF18"/>
<rect y="44" width="4" height="4" fill="#FF0046"/>
<rect x="28" y="44" width="4" height="4" fill="#FF0046"/>
<rect x="56" y="44" width="4" height="4" fill="#FF0046"/>
<rect x="84" y="44" width="4" height="4" fill="#FF0046"/>
<rect x="112" y="44" width="4" height="4" fill="#FF0046"/>
<rect x="140" y="44" width="4" height="4" fill="#FF0046"/>
<rect x="168" y="44" width="4" height="4" fill="#FF0046"/>
<rect x="196" y="44" width="4" height="4" fill="#FF0046"/>
<rect x="224" y="44" width="4" height="4" fill="#FF0046"/>
<rect x="252" y="44" width="4" height="4" fill="#FF0046"/>
<rect y="72" width="4" height="4" fill="#3BFF18"/>
<rect x="28" y="72" width="4" height="4" fill="#3BFF18"/>
<rect x="56" y="72" width="4" height="4" fill="#3BFF18"/>
<rect x="84" y="72" width="4" height="4" fill="#3BFF18"/>
<rect x="112" y="72" width="4" height="4" fill="#3BFF18"/>
<rect x="140" y="72" width="4" height="4" fill="#3BFF18"/>
<rect x="168" y="72" width="4" height="4" fill="#3BFF18"/>
<rect x="196" y="72" width="4" height="4" fill="#3BFF18"/>
<rect x="224" y="72" width="4" height="4" fill="#3BFF18"/>
<rect x="252" y="72" width="4" height="4" fill="#3BFF18"/>
<rect y="100" width="4" height="4" fill="#FF0046"/>
<rect x="28" y="100" width="4" height="4" fill="#FF0046"/>
<rect x="56" y="100" width="4" height="4" fill="#FF0046"/>
<rect x="84" y="100" width="4" height="4" fill="#FF0046"/>
<rect x="112" y="100" width="4" height="4" fill="#FF0046"/>
<rect x="140" y="100" width="4" height="4" fill="#FF0046"/>
<rect x="168" y="100" width="4" height="4" fill="#FF0046"/>
<rect x="196" y="100" width="4" height="4" fill="#FF0046"/>
<rect x="224" y="100" width="4" height="4" fill="#FF0046"/>
<rect x="252" y="100" width="4" height="4" fill="#FF0046"/>
<rect y="128" width="4" height="4" fill="#3BFF18"/>
<rect x="28" y="128" width="4" height="4" fill="#3BFF18"/>
<rect x="56" y="128" width="4" height="4" fill="#3BFF18"/>
<rect x="84" y="128" width="4" height="4" fill="#3BFF18"/>
<rect x="112" y="128" width="4" height="4" fill="#3BFF18"/>
<rect x="140" y="128" width="4" height="4" fill="#3BFF18"/>
<rect x="168" y="128" width="4" height="4" fill="#3BFF18"/>
<rect x="196" y="128" width="4" height="4" fill="#3BFF18"/>
<rect x="224" y="128" width="4" height="4" fill="#3BFF18"/>
<rect x="252" y="128" width="4" height="4" fill="#3BFF18"/>
<rect y="156" width="4" height="4" fill="#FF0046"/>
<rect x="28" y="156" width="4" height="4" fill="#FF0046"/>
<rect x="56" y="156" width="4" height="4" fill="#FF0046"/>
<rect x="84" y="156" width="4" height="4" fill="#FF0046"/>
<rect x="112" y="156" width="4" height="4" fill="#FF0046"/>
<rect x="140" y="156" width="4" height="4" fill="#FF0046"/>
<rect x="168" y="156" width="4" height="4" fill="#FF0046"/>
<rect x="196" y="156" width="4" height="4" fill="#FF0046"/>
<rect x="224" y="156" width="4" height="4" fill="#FF0046"/>
<rect x="252" y="156" width="4" height="4" fill="#FF0046"/>
</svg>
