<svg width="200" height="184" viewBox="0 0 200 184" fill="none" xmlns="http://www.w3.org/2000/svg">
<g id="Waves">
<path id="Vector 3" d="M2 21L19.8182 3L37.6364 21L55.4545 3L73.2727 21L91.0909 3L108.909 21L126.727 3L144.545 21L162.364 3L180.182 21L198 3" stroke="#FF0046" stroke-width="3" stroke-linecap="round"/>
<path id="Vector 4" d="M2 48L19.8182 30L37.6364 48L55.4545 30L73.2727 48L91.0909 30L108.909 48L126.727 30L144.545 48L162.364 30L180.182 48L198 30" stroke="#3BFF18" stroke-width="3" stroke-linecap="round"/>
<path id="Vector 5" d="M2 74L19.8182 56L37.6364 74L55.4545 56L73.2727 74L91.0909 56L108.909 74L126.727 56L144.545 74L162.364 56L180.182 74L198 56" stroke="#FF0046" stroke-width="3" stroke-linecap="round"/>
<path id="Vector 6" d="M2 101L19.8182 83L37.6364 101L55.4545 83L73.2727 101L91.0909 83L108.909 101L126.727 83L144.545 101L162.364 83L180.182 101L198 83" stroke="#3BFF18" stroke-width="3" stroke-linecap="round"/>
<path id="Vector 7" d="M2 128L19.8182 110L37.6364 128L55.4545 110L73.2727 128L91.0909 110L108.909 128L126.727 110L144.545 128L162.364 110L180.182 128L198 110" stroke="#FF0046" stroke-width="3" stroke-linecap="round"/>
<path id="Vector 8" d="M2 154L19.8182 137L37.6364 154L55.4545 137L73.2727 154L91.0909 137L108.909 154L126.727 137L144.545 154L162.364 137L180.182 154L198 137" stroke="#3BFF18" stroke-width="3" stroke-linecap="round"/>
<path id="Vector 9" d="M2 181L19.8182 163L37.6364 181L55.4545 163L73.2727 181L91.0909 163L108.909 181L126.727 163L144.545 181L162.364 163L180.182 181L198 163" stroke="#FF0046" stroke-width="3" stroke-linecap="round"/>
</g>
</svg>
